<?xml version="1.0" encoding="utf-8"?>
<!-- Generator: Adobe Illustrator 25.2.0, SVG Export Plug-In . SVG Version: 6.00 Build 0)  -->
<svg version="1.1" id="Capa_1" xmlns="http://www.w3.org/2000/svg" xmlns:xlink="http://www.w3.org/1999/xlink" x="0px" y="0px"
	 viewBox="0 0 500 500" style="enable-background:new 0 0 500 500;" xml:space="preserve">
<style type="text/css">
	.st0{fill:#FDFDFD;}
	.st1{fill:#090706;}
	.st2{fill:#930CA4;}
	.st3{fill:#18252C;}
	.st4{fill:#C7CACB;}
	.st5{fill:#F3BE8E;}
	.st6{fill:#F1C7A2;}
	.st7{fill:#B1D400;}
	.st8{fill:#E75627;}
</style>
<g>
	<g>
		<path class="st0" d="M231.28,357.97c-77.4,0-154.8,0-232.28,0c0-71.69,0-143.38,0-215.24c166.78,0,333.64,0,500.51,0
			c0,4.6,0,9.35,0,14.1c-3.6-2.09-7.21-4.18-10.81-6.27c-0.32-2.2-0.63-4.4-1.23-8.56c-11.34,2.67-21.77,5.15-32.2,7.59
			c-12.38,2.9-24.76,5.81-37.15,8.63c-15.64,3.56-31.29,7.1-46.97,10.51c-8.62,1.87-17.44,2.96-25.89,5.36
			c-4.99,1.42-12.54,1.77-10.24,10.57c-14.38,4.06-13.13,1.9-10.92,13.69c-7.23,2.56-11.79-2.96-17.23-5.62
			c-2.67-1.31-5.44-4.18-7.89-3.91c-14.33,1.57-28.76,3.04-42.79,6.16c-12.07,2.68-23.69,7.43-35.45,11.42
			c-5.25,1.78-10.38,3.92-15.56,5.89c-9.08,3.46-18.13,7.26-28.47,2.03c3.53-10.37-3.99-11.49-11.33-12.12
			c-0.29-7.58-1.9-9.56-8.53-11.13c-11.92-2.84-23.82-5.72-35.74-8.53c-12.37-2.91-24.74-5.84-37.15-8.59
			c-21.02-4.66-42.06-9.24-63.12-13.76c-8.41-1.81-9.24-1.04-9.64,7.8c-7.31,2.37-10.6,8.09-10.64,15.02
			c-0.19,34.56,0.03,69.12,0.11,103.68c0.36,3.56-2.8,8.27,2.7,10.2c6.51,2.29,13.21,4.05,19.83,6.04c1,0.29,2,0.59,3,0.88
			c0.92,0.13,1.84,0.25,2.77,0.38c1.46,0.38,2.93,0.76,4.39,1.14c1.4,0.15,2.79,0.29,4.19,0.44c2.18,6.45,7.6,2.86,11.59,3.71
			c18.95,4.03,37.91,8.08,56.87,12.09c4.43,0.94,9.84,0.47,13.13,2.89c6,4.41,8.12,0.88,9.97-3.35c1.93-4.39,4.25-5.65,8.74-3.59
			c1.84,0.84,4.29,0.26,6.35,0.76c4.47,1.08,7.01-0.15,8.37-4.84c1.68-5.79,4.13-11.36,6.22-16.94c7.8,1.04,10.77,5.51,11.39,12.4
			c0.57,6.25,2.23,11.69,8.71,15.19c8.17,4.42,15.7,10.04,23.46,15.2c0.7,0.46,1.03,1.43,1.66,2.02c3.31,3.04,6.34,6.52,10.08,8.91
			C219.35,353.59,227.36,351.28,231.28,357.97z"/>
		<path class="st1" d="M231.28,357.97c-3.92-6.68-11.93-4.37-17.23-7.76c-3.74-2.39-6.77-5.88-10.08-8.91
			c-0.64-0.59-0.97-1.56-1.66-2.02c-7.77-5.16-15.29-10.77-23.46-15.2c-6.48-3.51-8.15-8.94-8.71-15.19
			c-0.62-6.89-3.59-11.35-11.39-12.4c-2.09,5.58-4.54,11.14-6.22,16.94c-1.36,4.69-3.89,5.92-8.37,4.84
			c-2.07-0.5-4.51,0.08-6.35-0.76c-4.49-2.05-6.81-0.8-8.74,3.59c-1.86,4.23-3.98,7.76-9.97,3.35c-3.29-2.42-8.7-1.95-13.13-2.89
			c-18.96-4.01-37.91-8.05-56.87-12.09c-3.86-1.24-7.73-2.47-11.59-3.71c-1.4-0.15-2.79-0.29-4.19-0.44
			c-1.46-0.38-2.93-0.76-4.39-1.14c-0.92-0.13-1.84-0.25-2.77-0.38c-1-0.29-2-0.59-3-0.88c-6.62-1.99-13.31-3.75-19.83-6.04
			c-5.5-1.93-2.33-6.64-2.7-10.2c13.81,3.09,27.64,6.11,41.43,9.28c23.53,5.42,47.13,10.61,70.51,16.62
			c7.5,1.93,9.73-0.1,12.69-6.94c13.71-31.7,22.54-64.7,29.24-98.42c0.98-4.94-1.74-6.31-5.21-7.5c-1.77-0.6-3.76-0.5-5.6-0.93
			c-24.39-5.68-48.76-11.41-73.15-17.09c-19.79-4.61-39.59-9.16-59.38-13.73c0.4-8.84,1.23-9.61,9.64-7.8
			c21.05,4.52,42.1,9.09,63.12,13.76c12.41,2.75,24.78,5.68,37.15,8.59c11.92,2.8,23.83,5.69,35.74,8.53
			c6.63,1.58,8.25,3.55,8.53,11.13c7.34,0.63,14.86,1.76,11.33,12.12c10.34,5.23,19.39,1.43,28.47-2.03
			c5.18-1.98,10.31-4.12,15.56-5.89c11.77-3.98,23.38-8.74,35.45-11.42c14.03-3.11,28.47-4.59,42.79-6.16
			c2.45-0.27,5.22,2.6,7.89,3.91c5.44,2.67,10,8.19,17.23,5.62c-2.21-11.79-3.46-9.63,10.92-13.69c-2.3-8.81,5.25-9.15,10.24-10.57
			c8.45-2.41,17.28-3.49,25.89-5.36c15.68-3.41,31.33-6.95,46.97-10.51c12.4-2.82,24.77-5.74,37.15-8.63
			c10.43-2.44,20.86-4.91,32.2-7.59c0.6,4.15,0.92,6.35,1.23,8.56c-8.8,2.56-17.52,5.43-26.42,7.61
			c-14.7,3.6-29.51,6.81-44.29,10.09c-21.29,4.72-42.62,9.31-63.9,14.09c-2.74,0.62-5.3,2.05-7.59,2.96
			c8.25,18.44,16.96,35.58,23.64,53.46c6.67,17.86,11.3,36.47,17.23,56.08c5.61-1.62,11.99-3.8,18.53-5.28
			c21.28-4.8,42.61-9.37,63.93-13.95c9.87-2.12,19.78-4.08,29.68-6.11c0,2.85,0,5.71,0,8.56c-4.64,1.45-9.21,3.17-13.93,4.3
			c-14.2,3.43-28.45,6.7-42.7,9.9c-17.75,3.99-35.6,7.6-53.28,11.91c-6.94,1.69-11.77,1.63-12.02-7.33
			c-4.77,0.81-9.02,1.22-13.09,2.31c-4.92,1.32-7.17-0.89-8.23-5.17c-1.24-5.01-2.37-10.05-3.38-14.36
			c-7.2,5.55-14.11,10.89-21.32,16.46c0.96,7.7,0.59,15.28-8.99,18.71c-1.02,0.36-1.67,2.04-2.27,3.22
			c-3.56,7.08-6.83,14.43-17.01,13.1c-0.79-0.1-2.18,1-2.6,1.87c-3.99,8.15-10.51,9.27-18.55,6.33
			c-6.33,13.34-16.95,9.58-27.83,6.81c-1.97,4.01-3.89,7.91-5.82,11.82C242.76,357.97,237.02,357.97,231.28,357.97z M295.09,326.94
			c-2.07-1.79-3.99-3.71-6.16-5.28c-9.29-6.73-18.83-13.14-27.83-20.23c-1.74-1.37-1.48-5.27-2.14-8c2.34,0.17,5.23-0.47,6.91,0.66
			c6.77,4.54,13.13,9.68,19.72,14.5c5.49,4.02,10.82,8.38,16.78,11.55c1.95,1.04,5.65-1.18,8.56-1.91c-0.81-2.3-1.02-5.15-2.55-6.79
			c-2.83-3.04-6.42-5.39-9.72-7.98c-8.46-6.64-17.12-13.05-25.27-20.05c-1.6-1.37-1.25-5-1.79-7.58c2.31,0.1,4.77-0.27,6.89,0.41
			c2.19,0.71,4.17,2.28,6.01,3.76c9.61,7.75,18.99,15.81,28.86,23.21c2.04,1.53,5.85,0.73,8.84,1c-0.24-3.07,0.64-6.96-0.92-9.05
			c-5.57-7.47-11.35-15-18.18-21.28c-12.67-11.65-26.1-22.48-39.29-33.56c-4.81-4.04-8.43-2.02-10.74,2.92
			c-7.84,16.78-25.27,14.13-36.51,6.66c-1.89-1.26-2.39-7.25-1.16-10c3.7-8.25,8.57-15.98,12.98-23.91
			c-11.41,1.91-22.3,2.87-29.49,12.35c-0.91,1.2-4.4,1.1-6.49,0.66c-5.31-1.14-10.5-2.83-15.07-4.11
			c-5.14,21.55-9.95,41.73-14.5,60.82c4.82,3.41,9.23,6.54,13.89,9.84c16.05-10.6,16.05-10.6,28.86,0.26
			c1.18-0.67,2.36-1.51,3.66-2.05c9.44-3.93,18.65-0.42,23.26,8.59c0.84,1.65,2.38,3.06,3.86,4.25c4.98,4.03,10.44,7.68,9.6,13.05
			c4.38,4.65,9.71,7.69,10.36,11.52c1.48,8.7,7.82,6.93,12.9,7.59c1.67,0.22,3.7-2.24,5.56-3.48c-1.36-1.41-2.48-3.19-4.11-4.17
			c-6.65-3.99-13.68-7.4-20.06-11.76c-1.87-1.27-2.06-4.98-3.02-7.57c2.33-0.2,5.2-1.37,6.89-0.44
			c8.34,4.65,16.13,10.32,24.61,14.67C283.63,328.39,288.63,335.12,295.09,326.94z M269.61,232.59c3.9,2.93,9.67,6.94,15.09,11.39
			c10.52,8.63,24.08,6.78,31.54-4.51c1.07-1.62,2.38-3.07,5.11-6.55c1.1,4.74,2.75,7.65,2.16,10.01
			c-2.56,10.34-11.77,13.3-20.53,16.5c6.62,7.14,13.26,13.73,19.21,20.89c4.79,5.76,7.48,6.88,12.85,2.28
			c4.21-3.61,8.11-7.74,11.43-12.17c1.57-2.09,2.65-5.79,1.91-8.14c-5.67-18.18-11.84-36.21-18.05-54.87
			c-12.19,4.03-21.03-0.68-29.35-7.57c-1.22-1.01-3.62-1.03-5.4-0.85c-4.91,0.5-9.79,1.31-14.67,2.08
			c-12.91,2.02-25.89,2.82-35.28,14.59c-5.85,7.32-16.46,10.78-17.45,22.15c-0.16,1.88-2.18,3.59-3.34,5.38
			c10.66,7.05,15.7,3.21,20.67-4.17c1.87-2.78,1.86-6.77,3-10.11c0.84-2.47,2.17-4.78,3.28-7.16c2.22,1.24,4.45,2.48,6.16,3.44
			c2.96-1.35,6.14-2.8,9.32-4.25C267.94,224.25,268.6,227.56,269.61,232.59z M375.26,287.38c0.29-0.83,0.48-1.08,0.44-1.28
			c-6.25-31.14-19.22-59.77-33.17-88.04c-2.14-4.33-5.04-4.24-7.18-2.73c10.07,31.36,19.95,62.13,29.95,93.31
			C368.15,288.28,371.85,287.81,375.26,287.38z M168.58,213.35c-5.75-2.48-6.68,0.78-7.59,4.54c-3.58,14.7-6.86,29.49-11.04,44.02
			c-4.22,14.67-9.38,29.07-14.19,43.77c3.1,0.72,5.97,1.39,9.49,2.21C156.58,277.07,166.37,246.16,168.58,213.35z M224.29,308.28
			c-0.3-5.92-7.27-8.27-12.03-4.46c-5.22,4.18-9.46,9.57-14.17,14.38c-3.58,3.66-2.75,7.46,1.23,9.22c2.49,1.1,6.5,0.09,9.27-1.17
			c2.33-1.06,3.95-3.79,5.74-5.9C217.91,316.11,221.39,311.79,224.29,308.28z M212.28,338.86c4.69,1.23,8.61,5.68,12.76,0.74
			c3.61-4.3,6.8-9.04,9.52-13.95c1.11-2,0.5-4.95,0.67-7.47c-2.59,0.68-5.82,0.63-7.66,2.19c-4.63,3.92-8.75,8.47-12.84,12.98
			C213.58,334.6,213.25,336.58,212.28,338.86z M185.41,316.76c3.44-4.02,6.84-7.17,9.12-10.99c1.21-2.02,0.46-5.19,0.6-7.84
			c-2.78,0.29-5.93-0.13-8.24,1.06c-2.56,1.32-4.74,3.88-6.33,6.37c-1.07,1.66-1.63,4.46-0.95,6.19
			C180.32,313.37,182.77,314.51,185.41,316.76z M233.56,345.8c0.31,0.94,0.62,1.87,0.93,2.81c2.95-0.16,7.52,0.77,8.54-0.71
			c2.68-3.89,3.81-8.83,5.56-13.35c-1.52-0.54-3.99-1.94-4.42-1.48C240.43,337.13,237.05,341.51,233.56,345.8z"/>
		<path class="st2" d="M499.51,269.52c-9.89,2.03-19.8,3.99-29.68,6.11c-21.33,4.59-42.66,9.16-63.93,13.95
			c-6.54,1.47-12.92,3.66-18.53,5.28c-5.93-19.62-10.57-38.23-17.23-56.08c-6.68-17.89-15.39-35.02-23.64-53.46
			c2.29-0.91,4.85-2.35,7.59-2.96c21.28-4.78,42.6-9.37,63.9-14.09c14.78-3.28,29.59-6.49,44.29-10.09
			c8.9-2.18,17.62-5.05,26.42-7.61c3.6,2.09,7.21,4.18,10.81,6.26C499.51,194.39,499.51,231.95,499.51,269.52z"/>
		<path class="st0" d="M248.49,357.97c1.92-3.91,3.84-7.81,5.82-11.82c10.88,2.77,21.5,6.53,27.83-6.81
			c8.03,2.94,14.55,1.83,18.55-6.33c0.43-0.87,1.81-1.97,2.6-1.87c10.18,1.32,13.45-6.02,17.01-13.1c0.59-1.18,1.25-2.86,2.27-3.22
			c9.59-3.43,9.95-11,8.99-18.71c7.22-5.57,14.13-10.9,21.32-16.46c1.01,4.31,2.14,9.35,3.38,14.36c1.06,4.28,3.31,6.49,8.23,5.17
			c4.07-1.09,8.32-1.5,13.09-2.31c0.25,8.96,5.08,9.02,12.02,7.33c17.67-4.31,35.52-7.92,53.28-11.91c14.26-3.21,28.5-6.48,42.7-9.9
			c4.71-1.14,9.29-2.85,13.93-4.3c0,26.63,0,53.26,0,79.89C415.84,357.97,332.17,357.97,248.49,357.97z"/>
		<path class="st3" d="M11.16,167.99c19.79,4.58,39.59,9.13,59.38,13.73c24.39,5.68,48.76,11.41,73.15,17.09
			c1.84,0.43,3.84,0.33,5.6,0.93c3.47,1.18,6.19,2.55,5.21,7.5c-6.69,33.71-15.52,66.72-29.24,98.42
			c-2.96,6.84-5.19,8.87-12.69,6.94c-23.38-6.01-46.98-11.2-70.51-16.62c-13.79-3.18-27.62-6.19-41.43-9.28
			c-0.08-34.56-0.3-69.12-0.11-103.68C0.56,176.08,3.85,170.36,11.16,167.99z"/>
		<path class="st4" d="M37.5,305.77c3.86,1.24,7.73,2.47,11.59,3.71C45.11,308.63,39.68,312.21,37.5,305.77z"/>
		<path class="st4" d="M28.93,304.19c1.46,0.38,2.93,0.76,4.39,1.14C31.85,304.95,30.39,304.57,28.93,304.19z"/>
		<path class="st4" d="M23.16,302.93c1,0.29,2,0.59,3,0.88C25.16,303.51,24.16,303.22,23.16,302.93z"/>
		<path class="st5" d="M295.09,326.94c-6.46,8.17-11.45,1.45-15.99-0.88c-8.48-4.35-16.27-10.03-24.61-14.67
			c-1.69-0.94-4.56,0.24-6.89,0.44c0.96,2.59,1.15,6.29,3.02,7.57c6.38,4.36,13.41,7.77,20.06,11.76c1.62,0.97,2.75,2.76,4.11,4.17
			c-1.86,1.24-3.89,3.7-5.56,3.48c-5.09-0.67-11.43,1.1-12.9-7.59c-0.65-3.83-5.98-6.88-10.36-11.52c0.84-5.38-4.62-9.03-9.6-13.05
			c-1.48-1.2-3.02-2.61-3.86-4.25c-4.61-9.01-13.82-12.52-23.26-8.59c-1.3,0.54-2.47,1.37-3.66,2.05
			c-12.81-10.86-12.81-10.86-28.86-0.26c-4.66-3.3-9.07-6.43-13.89-9.84c4.55-19.09,9.36-39.27,14.5-60.82
			c4.56,1.28,9.76,2.96,15.07,4.11c2.09,0.45,5.58,0.55,6.49-0.66c7.19-9.48,18.08-10.44,29.49-12.35
			c-4.41,7.93-9.29,15.66-12.98,23.91c-1.23,2.75-0.73,8.74,1.16,10c11.24,7.47,28.67,10.11,36.51-6.66
			c2.31-4.94,5.93-6.96,10.74-2.92c13.19,11.08,26.62,21.91,39.29,33.56c6.83,6.29,12.61,13.81,18.18,21.28
			c1.56,2.09,0.68,5.99,0.92,9.05c-2.99-0.27-6.8,0.53-8.84-1c-9.87-7.4-19.24-15.46-28.86-23.21c-1.84-1.48-3.83-3.05-6.01-3.76
			c-2.12-0.69-4.58-0.32-6.89-0.41c0.55,2.58,0.19,6.21,1.79,7.58c8.15,7,16.81,13.41,25.27,20.05c3.31,2.59,6.89,4.95,9.72,7.98
			c1.53,1.64,1.74,4.49,2.55,6.79c-2.9,0.73-6.61,2.95-8.56,1.91c-5.96-3.17-11.29-7.54-16.78-11.55
			c-6.59-4.82-12.95-9.96-19.72-14.5c-1.69-1.13-4.58-0.49-6.91-0.66c0.66,2.73,0.4,6.63,2.14,8c9,7.09,18.54,13.5,27.83,20.23
			C291.1,323.24,293.02,325.15,295.09,326.94z"/>
		<path class="st6" d="M269.61,232.59c-1.01-5.04-1.67-8.34-2.33-11.65c-3.18,1.45-6.36,2.9-9.32,4.25
			c-1.71-0.95-3.94-2.2-6.16-3.44c-1.11,2.38-2.44,4.69-3.28,7.16c-1.14,3.34-1.13,7.33-3,10.11c-4.97,7.39-10,11.23-20.67,4.17
			c1.16-1.79,3.17-3.51,3.34-5.38c0.98-11.37,11.6-14.83,17.45-22.15c9.39-11.76,22.37-12.56,35.28-14.59
			c4.88-0.76,9.76-1.58,14.67-2.08c1.78-0.18,4.19-0.16,5.4,0.85c8.32,6.89,17.16,11.6,29.35,7.57
			c6.21,18.66,12.38,36.69,18.05,54.87c0.73,2.35-0.35,6.05-1.91,8.14c-3.32,4.43-7.21,8.56-11.43,12.17
			c-5.37,4.6-8.07,3.49-12.85-2.28c-5.95-7.16-12.58-13.75-19.21-20.89c8.76-3.2,17.96-6.16,20.53-16.5
			c0.59-2.36-1.06-5.27-2.16-10.01c-2.73,3.48-4.04,4.93-5.11,6.55c-7.46,11.29-21.02,13.15-31.54,4.51
			C279.28,239.54,273.51,235.52,269.61,232.59z"/>
		<path class="st7" d="M375.26,287.38c-3.41,0.43-7.12,0.9-9.96,1.26c-10.01-31.17-19.89-61.94-29.95-93.31
			c2.14-1.51,5.05-1.6,7.18,2.73c13.95,28.27,26.91,56.91,33.17,88.04C375.74,286.3,375.55,286.55,375.26,287.38z"/>
		<path class="st8" d="M168.58,213.35c-2.21,32.81-12.01,63.72-23.34,94.53c-3.52-0.82-6.39-1.49-9.49-2.21
			c4.81-14.7,9.97-29.1,14.19-43.77c4.18-14.53,7.47-29.32,11.04-44.02C161.9,214.13,162.84,210.87,168.58,213.35z"/>
		<path class="st6" d="M224.29,308.28c-2.89,3.51-6.38,7.83-9.97,12.06c-1.79,2.11-3.4,4.84-5.74,5.9
			c-2.77,1.26-6.78,2.27-9.27,1.17c-3.98-1.75-4.81-5.56-1.23-9.22c4.71-4.81,8.95-10.2,14.17-14.38
			C217.01,300,223.99,302.35,224.29,308.28z"/>
		<path class="st6" d="M212.28,338.86c0.97-2.28,1.3-4.26,2.44-5.52c4.09-4.51,8.21-9.06,12.84-12.98c1.84-1.56,5.07-1.51,7.66-2.19
			c-0.17,2.52,0.45,5.47-0.67,7.47c-2.72,4.91-5.91,9.65-9.52,13.95C220.88,344.54,216.97,340.09,212.28,338.86z"/>
		<path class="st6" d="M185.41,316.76c-2.64-2.25-5.09-3.39-5.8-5.21c-0.68-1.73-0.12-4.53,0.95-6.19c1.6-2.49,3.77-5.04,6.33-6.37
			c2.31-1.19,5.46-0.77,8.24-1.06c-0.14,2.65,0.61,5.82-0.6,7.84C192.25,309.59,188.84,312.74,185.41,316.76z"/>
		<path class="st6" d="M233.56,345.8c3.49-4.29,6.86-8.67,10.61-12.72c0.43-0.46,2.9,0.94,4.42,1.48
			c-1.75,4.52-2.88,9.46-5.56,13.35c-1.02,1.48-5.59,0.54-8.54,0.71C234.18,347.67,233.87,346.74,233.56,345.8z"/>
	</g>
</g>
</svg>
